<svg width="32" height="32" viewBox="0 0 32 32" fill="none" xmlns="http://www.w3.org/2000/svg">
<g clip-path="url(#clip0)">
<path d="M31.6832 16.5899C31.2952 16.2471 30.7027 16.284 30.3599 16.6719L30.3448 16.689V16.032C30.3448 12.2005 28.8526 8.59816 26.1431 5.88868C23.4339 3.17945 19.8316 1.6875 16 1.6875C13.6856 1.6875 11.3858 2.25195 9.3489 3.31958C7.37819 4.35254 5.64846 5.85523 4.34669 7.66554C4.04445 8.08571 4.14015 8.67164 4.56056 8.97389C4.98097 9.27638 5.56691 9.18068 5.86916 8.76027C7.00149 7.18556 8.50588 5.87843 10.2195 4.98023C11.9888 4.05274 13.9876 3.5625 16 3.5625C22.8758 3.5625 28.4698 9.15651 28.4698 16.0323V16.6892L28.4544 16.6721C28.1116 16.284 27.5191 16.2473 27.1312 16.5901C26.743 16.9329 26.7064 17.5254 27.0491 17.9134L28.7044 19.7874C28.8824 19.9888 29.1382 20.104 29.407 20.104C29.6758 20.104 29.9317 19.9888 30.1097 19.7874L31.765 17.9134C32.108 17.5252 32.0714 16.9326 31.6832 16.5899V16.5899Z" fill="#788CDE"/>
<path d="M27.4395 23.0869C27.0191 22.7847 26.4334 22.8801 26.1309 23.3006C24.9986 24.875 23.4942 26.1822 21.7806 27.0806C20.0113 28.0081 18.0123 28.4983 16.0001 28.4983C9.12432 28.4983 3.53031 22.9043 3.53031 16.0286V15.3716L3.54569 15.3889C3.88847 15.7769 4.481 15.8137 4.86894 15.4707C5.25712 15.1279 5.29374 14.5354 4.95097 14.1475L3.29569 12.2734C3.11747 12.072 2.86186 11.9565 2.59306 11.9565C2.32426 11.9565 2.06815 12.072 1.89042 12.2734L0.234897 14.1475C-0.107877 14.5356 -0.0712554 15.1279 0.316929 15.4707C0.495152 15.6284 0.716588 15.7058 0.937291 15.7058C1.19657 15.7058 1.45487 15.5986 1.64017 15.3889L1.65531 15.3716V16.0286C1.65531 19.8604 3.1475 23.4624 5.85698 26.1719C8.56621 28.8814 12.1685 30.3733 16.0001 30.3733C18.3143 30.3733 20.6143 29.8089 22.6512 28.7412C24.6217 27.7083 26.3514 26.2053 27.6532 24.3953C27.9554 23.9749 27.8599 23.3892 27.4395 23.0869V23.0869Z" fill="#788CDE"/>
</g>
<defs>
<clipPath id="clip0">
<rect width="32" height="32" fill="white"/>
</clipPath>
</defs>
</svg>
