<svg width="40" height="40" viewBox="0 0 40 40" fill="none" xmlns="http://www.w3.org/2000/svg">
<g clip-path="url(#clip0)">
<path d="M39.6049 15.5636C40.1316 15.037 40.1316 14.1831 39.6049 13.6564L37.581 11.6324C37.1232 11.1747 36.4046 11.1068 35.8693 11.4706L31.6137 14.363L34.4885 10.0786C34.8475 9.54357 34.7779 8.82915 34.3222 8.37357L29.9319 3.9833C29.5266 3.57798 28.9095 3.47306 28.3932 3.72184L27.6341 4.08732L27.9976 3.28083C28.228 2.7697 28.1182 2.16946 27.7218 1.77296L26.3436 0.395011C25.817 -0.131589 24.9631 -0.131589 24.4364 0.395011L13.7318 11.0995L28.9004 26.2682L39.6049 15.5636Z" fill="#788CDE"/>
<path d="M11.7386 13.0928L8.63978 16.1916C8.38687 16.4445 8.24472 16.7875 8.24472 17.1452C8.24472 17.5028 8.38678 17.8459 8.63978 18.0988L11.5793 21.0383C12.1456 21.6046 12.4203 22.3862 12.3329 23.1825C12.2456 23.9783 11.8076 24.6819 11.1312 25.1131C2.49375 30.619 1.68861 31.4242 1.4241 31.6888C-0.474699 33.5875 -0.474699 36.677 1.4241 38.5759C3.32478 40.4766 6.41443 40.4728 8.31116 38.5759C8.57586 38.3113 9.38126 37.5058 14.8868 28.8688C15.3169 28.1941 16.0203 27.757 16.8164 27.6695C17.6151 27.5824 18.3966 27.8557 18.9616 28.4206L21.9011 31.3601C22.4277 31.8867 23.2817 31.8867 23.8083 31.3601L26.9072 28.2612L11.7386 13.0928ZM6.29818 36.3976C5.55373 37.142 4.34679 37.142 3.60243 36.3976C2.85797 35.6531 2.85797 34.4462 3.60243 33.7018C4.34688 32.9574 5.55382 32.9574 6.29818 33.7018C7.04263 34.4462 7.04263 35.6531 6.29818 36.3976Z" fill="#788CDE"/>
</g>
<defs>
<clipPath id="clip0">
<rect width="40" height="40" fill="white"/>
</clipPath>
</defs>
</svg>
