<svg width="25" height="25" viewBox="0 0 25 25" fill="none" xmlns="http://www.w3.org/2000/svg">
<path d="M24.0896 0.864746H16.6135V2.5261H23.2589V22.4623H1.66135V2.5261H8.30675V0.864746H0.830675C0.372116 0.864746 0 1.23686 0 1.69542V23.293C0 23.7515 0.372116 24.1236 0.830675 24.1236H24.0896C24.5481 24.1236 24.9203 23.7515 24.9203 23.293V1.69542C24.9203 1.23693 24.5481 0.864746 24.0896 0.864746Z" fill="#788CDE"/>
<path d="M18.0246 5.11266L13.0406 0.236594C12.7133 -0.0840595 12.1867 -0.0779593 11.866 0.249898L6.89528 5.11214C6.56743 5.43331 6.56133 5.95884 6.88198 6.28728C7.20263 6.61404 7.72927 6.62014 8.05654 6.29948L11.6295 2.80455V20.6574C11.6295 21.1165 12.0017 21.4881 12.4602 21.4881C12.9188 21.4881 13.2909 21.1171 13.2909 20.6574V2.80448L16.8634 6.29942C17.1907 6.62059 17.7173 6.61449 18.0379 6.28722C18.3585 5.95884 18.353 5.43324 18.0246 5.11266Z" fill="#788CDE"/>
</svg>
